<?xml version="1.0" encoding="UTF-8"?>
<svg xmlns="http://www.w3.org/2000/svg" id="Layer_6" data-name="Layer 6" viewBox="0 0 330.31 306.85">
  <defs>
    <style>.cls-1{fill:#ef4f25;}.cls-2{fill:#2cb6e9;}.cls-3{fill:#003d4c;}.cls-4{fill:#007db5;}.cls-5{fill:#29b7ea;}.cls-6{fill:#9ace2f;}</style>
  </defs>
  <path class="cls-1" d="M85.22,139.32C69.64,139.32,57,126.9,57,111.63S69.64,83.94,85.22,83.94c2.21,0,4.9.55,4.72,3.38s-2.62,2.87-4.72,2.87c-12.13,0-22,9.62-22,21.44s9.87,21.44,22,21.44,22-9.62,22-21.44a20.73,20.73,0,0,0-2.43-9.79,3.13,3.13,0,1,1,5.53-2.92,27.3,27.3,0,0,1,3.15,12.71c0,15.27-12.67,27.69-28.25,27.69Z"></path>
  <path class="cls-2" d="M100.12,95a3.12,3.12,0,0,1-1.83-.59,21.08,21.08,0,0,0-2.61-1.62,3.12,3.12,0,1,1,2.92-5.52A28.72,28.72,0,0,1,102,89.32,3.15,3.15,0,0,1,100.12,95Z"></path>
  <path class="cls-1" d="M94.47,172.13c-1.44-1.5-2.66-3.21-4-4.79a1.49,1.49,0,0,1-.61.26H79.32c-.69,0-.91-.64-1-1h0v-8.45a3.11,3.11,0,0,0-2.49-3.05,45,45,0,0,1-15.8-6.69,3.12,3.12,0,0,0-4,.37l-5.92,5.91a1.17,1.17,0,0,1-1.42,0l-7.23-7.47a1.17,1.17,0,0,1,0-1.45l6.16-6.14a3.12,3.12,0,0,0,.41-3.91,42.51,42.51,0,0,1-6.46-16,3.12,3.12,0,0,0-3.08-2.61H29.84c-.69,0-.91-.65-1-1v-10.5c0-.68.65-.9,1-1H38.3a3.13,3.13,0,0,0,3.06-2.49,44.8,44.8,0,0,1,6.69-15.75,3.11,3.11,0,0,0-.37-4l-5.92-5.91a1.14,1.14,0,0,1,0-1.4L49.23,68a1.21,1.21,0,0,1,1.48,0l6.15,6.14a3.11,3.11,0,0,0,3.9.41,42.73,42.73,0,0,1,16-6.44,3.13,3.13,0,0,0,2.62-3.08v-9c0-.68.64-.9,1-1H90.86a.9.9,0,0,1,.72,1v8.7a3.13,3.13,0,0,0,2.49,3.06,44.79,44.79,0,0,1,15.79,6.68,3.12,3.12,0,0,0,4-.37l5.93-5.91a1.15,1.15,0,0,1,1.41,0l7.24,7.47a1.17,1.17,0,0,1,0,1.45l-6.15,6.14a3.12,3.12,0,0,0-.41,3.92,42.5,42.5,0,0,1,6.46,15.94,3.12,3.12,0,0,0,3.08,2.61h8.71a1.12,1.12,0,0,1,1.24,1v5.47c2.13-.77,4.25-1.56,6.33-2.45,0-1.59,0-3-.11-3.65a7.43,7.43,0,0,0-7.46-6.57h-6.16A48.92,48.92,0,0,0,128.4,86l4.4-4.4a7.43,7.43,0,0,0,.29-10c-1.16-1.34-6.17-6.46-7.45-7.69-2.63-2.52-7.33-3-10.07-.26L111.2,68a50.44,50.44,0,0,0-13.37-5.65V56.13a7.19,7.19,0,0,0-7-7.22c-1.79-.06-9-.1-10.77,0a7.37,7.37,0,0,0-7,7.22v6.39A49.55,49.55,0,0,0,59.53,68l-4.41-4.39a7.47,7.47,0,0,0-10-.29c-1.35,1.16-6.48,6.16-7.72,7.44-2.52,2.62-3,7.33-.26,10.06l4.37,4.35a50.35,50.35,0,0,0-5.66,13.33H29.58c-3.88,0-6.86,3.54-7,7.22-.05,1.79-.09,9,0,10.75a7.38,7.38,0,0,0,7.23,7H36A49.35,49.35,0,0,0,41.52,137l-4.4,4.39a7.45,7.45,0,0,0-.29,10c1.16,1.35,6.17,6.46,7.46,7.7,2.64,2.52,7.32,3,10.06.26L58.73,155a51,51,0,0,0,13.37,5.65v6.22a7.36,7.36,0,0,0,4.42,6.39c1.42.6,10.5.57,13.57.57h0A6.68,6.68,0,0,0,94.47,172.13Z"></path>
  <path class="cls-3" d="M291.72,151.1,189.32,79.86a3.55,3.55,0,0,0-4,0L82.9,151.1a3.52,3.52,0,0,0,2,6.41h5.38V171.8a3.53,3.53,0,0,0,3.52,3.52H99.2v73.1H93.81a3.53,3.53,0,0,0-3.52,3.52v14.82l-.62.22a12.44,12.44,0,0,0-8.28,11.68v8.9a3.53,3.53,0,0,0,3.52,3.52H235l-15.64-7H88.43v-5.38a5.39,5.39,0,0,1,5.38-5.39H207.88l.07.09-5.32-7.13H168.57V255.46H198.4l-1.63-7h-19.3v-73.1h19.68v69.22c1.3-9.84,4.53-19,7-28.18v-41h5.38a3.52,3.52,0,0,0,3.52-3.52V157.51h19.68V171.8a3.53,3.53,0,0,0,3.52,3.52h5.38v19.57l7,.18V175.32h19.68v25.3l7,4.89V175.32h5.38a3.53,3.53,0,0,0,3.52-3.52V157.51h5.39a3.52,3.52,0,0,0,2-6.41ZM97.33,168.28V157.51h37.49v10.77Zm28.58,7v73.1H106.24v-73.1Zm8.91,90.91H97.33V255.46h37.49Zm35.62-17.81h-5.39a3.53,3.53,0,0,0-3.52,3.52v14.29H141.85V251.94a3.52,3.52,0,0,0-3.51-3.52H133v-73.1h5.39a3.53,3.53,0,0,0,3.52-3.52V157.51h19.67V171.8a3.53,3.53,0,0,0,3.52,3.52h5.39Zm35.61-80.14H168.57V157.51h37.48Zm71.24,0H239.81V157.51h37.48ZM96.13,150.47,187.31,87l91.18,63.43Z"></path>
  <path d="M287.23,268.06l-.77-.47-4.07,5.91.58.25a5.4,5.4,0,0,1,3.23,4.91V284H270.28l.22-.15-12.59,7.19h31.81a3.53,3.53,0,0,0,3.52-3.52v-8.9A12.51,12.51,0,0,0,287.23,268.06Z"></path>
  <path class="cls-4" d="M272.71,282.34a48.12,48.12,0,0,0,9.17-8.34l.45-.53.06,0s4.07-5.91,4.06-5.91l.45-.79A48,48,0,0,0,275.77,206l-.34-.28v-.21l-7-4.89V201l-1.36-.7a47.35,47.35,0,0,0-17.47-5.07l-.85-.07v-.07l-7-.18v.24l-.84.08a48,48,0,0,0-34.94,20.27,18.38,18.38,0,0,0-3.19,6.12c-.74,2.54-2.46,5.18-3.17,7.73a58.86,58.86,0,0,0-2.38,15.21v3.88h-.38l1.63,7h.44l.19.68a47.9,47.9,0,0,0,3.45,8.73l.7,1.36h-.55l5.32,7.13.21.25a48.46,48.46,0,0,0,9.47,8.73c.8.57,1.61,1.14,2.42,1.69,0,.05-.22.05-.29.14.27-.35,13.62,6.19,15.22,6.91h22.93l12.59-7.19ZM245.19,284a41,41,0,1,1,41-41A41,41,0,0,1,245.19,284Z"></path>
  <path class="cls-5" d="M236.33,139.7H143.72v-7h81.72L186,104l4.35-5.73,48.24,35.09a3.53,3.53,0,0,1-2.08,6.37Z"></path>
  <path class="cls-6" d="M241.67,273.27v-8.91h-5.38a8,8,0,0,1-8-8v-3.52h7v4.46H255V246.56H236.29a8,8,0,0,1-8-8v-8.9a8,8,0,0,1,8-8h5.38V212.8h7v8.91h5.39a8,8,0,0,1,8,8v3.52h-7v-4.45H235.36v10.77H254.1a8,8,0,0,1,8,8v8.9a8,8,0,0,1-8,8h-5.39v8.91Z"></path>
</svg>
